<?xml version="1.0" standalone="no"?>
<!DOCTYPE svg PUBLIC "-//W3C//DTD SVG 20010904//EN"
 "http://www.w3.org/TR/2001/REC-SVG-20010904/DTD/svg10.dtd">
<svg version="1.0" xmlns="http://www.w3.org/2000/svg"
 width="742.000000pt" height="742.000000pt" viewBox="0 0 742.000000 742.000000"
 preserveAspectRatio="xMidYMid meet">
<metadata>
Created by potrace 1.14, written by Peter Selinger 2001-2017
</metadata>
<g transform="translate(0.000000,742.000000) scale(0.100000,-0.100000)"
fill="#000000" stroke="none">
<path d="M3677 7405 c-11 -10 -25 -13 -46 -9 -17 4 -31 2 -31 -3 0 -8 -48 -25
-115 -39 -16 -4 -57 -16 -90 -27 -33 -11 -68 -20 -77 -19 -10 0 -18 -3 -18 -9
0 -5 -9 -9 -19 -9 -11 0 -23 -5 -27 -11 -3 -6 -18 -9 -32 -6 -15 3 -32 -1 -40
-9 -8 -8 -22 -12 -32 -9 -10 3 -21 1 -25 -5 -3 -5 -19 -10 -34 -10 -15 0 -31
-3 -35 -7 -3 -4 -14 -8 -24 -9 -33 -5 -88 -21 -109 -32 -12 -7 -30 -12 -40
-12 -10 0 -31 -7 -46 -15 -15 -8 -34 -12 -42 -8 -8 3 -15 0 -15 -6 0 -6 -9
-11 -20 -11 -11 0 -20 -4 -20 -10 0 -5 -6 -7 -14 -4 -8 3 -41 -9 -75 -25 -44
-23 -61 -37 -61 -51 0 -17 -7 -20 -39 -20 -80 0 -249 -128 -297 -224 -14 -28
-45 -78 -70 -111 -83 -113 -146 -265 -183 -445 -34 -164 -39 -200 -40 -275 -1
-38 -8 -124 -17 -190 -18 -146 -17 -464 2 -585 8 -47 16 -105 20 -130 6 -41
-14 -235 -37 -355 -5 -27 -38 -111 -74 -185 -36 -74 -65 -141 -65 -148 0 -8
-45 -107 -99 -220 -97 -201 -129 -292 -166 -465 -10 -42 -21 -80 -26 -83 -5
-3 -9 -33 -9 -67 1 -52 6 -71 34 -117 40 -68 94 -106 183 -127 37 -9 73 -22
80 -31 9 -11 25 -13 75 -7 35 4 71 11 80 16 9 5 58 13 108 17 90 8 92 7 111
-16 10 -14 19 -31 19 -39 0 -8 14 -45 30 -83 29 -66 36 -112 24 -157 -8 -29
-25 -35 -147 -53 -37 -6 -96 -18 -130 -29 -34 -10 -96 -26 -137 -36 -41 -9
-115 -31 -165 -47 -49 -17 -106 -34 -125 -39 -151 -35 -221 -56 -287 -85 -17
-8 -40 -14 -51 -14 -12 0 -24 -4 -27 -10 -3 -6 -19 -10 -36 -10 -16 0 -37 -4
-47 -9 -9 -6 -29 -12 -44 -15 -16 -4 -35 -20 -49 -43 -13 -20 -36 -52 -52 -70
-16 -18 -26 -33 -21 -33 4 0 -3 -11 -16 -25 -13 -14 -29 -25 -35 -25 -7 0 -19
-8 -28 -18 -15 -17 -17 -121 -17 -1224 0 -1093 1 -1206 16 -1212 23 -9 1534
-7 1534 2 0 9 319 8 341 -2 12 -5 1631 -1 1802 5 20 0 37 6 37 11 0 7 5 7 13
0 14 -12 75 -11 94 1 6 4 13 1 15 -5 4 -10 204 -13 969 -13 l964 0 0 1275 0
1275 -80 81 c-93 94 -127 119 -198 146 -78 30 -126 41 -192 43 -34 2 -76 7
-95 12 -43 12 -120 5 -140 -11 -8 -7 -45 -21 -81 -30 -76 -20 -82 -19 -190 55
-31 22 -61 39 -67 39 -7 0 -39 27 -72 59 -54 53 -60 63 -60 99 0 49 91 235
126 258 23 16 81 11 204 -15 54 -12 124 -14 134 -4 9 9 45 14 104 13 23 -1 42
4 42 9 0 6 7 8 15 5 26 -10 64 5 107 44 58 53 78 101 78 195 0 115 -23 205
-94 369 -59 137 -101 211 -231 413 -75 116 -155 251 -155 261 0 5 -11 25 -23
44 -13 19 -27 52 -30 73 -3 21 -21 55 -40 80 -71 87 -81 228 -28 432 50 195
60 277 50 414 -16 232 -75 601 -120 747 -35 115 -86 226 -142 309 -48 70 -78
100 -124 122 -21 9 -39 29 -47 48 -24 56 -147 136 -301 195 -33 13 -74 29 -92
36 -17 8 -37 14 -45 14 -8 0 -18 4 -23 8 -27 22 -288 107 -360 117 -27 4 -59
12 -70 18 -11 6 -30 10 -43 8 -13 -1 -28 2 -35 7 -7 5 -30 13 -52 17 -22 4
-44 10 -50 15 -5 4 -28 11 -50 15 -21 3 -52 13 -67 21 -15 8 -35 14 -45 14
-10 0 -37 9 -58 21 -29 15 -66 22 -130 26 -49 2 -94 9 -99 14 -15 14 -43 11
-59 -6z m198 -535 c74 0 150 -26 226 -76 184 -122 297 -325 321 -574 9 -99 7
-235 -6 -305 -1 -11 -7 -42 -11 -70 -8 -50 -63 -187 -77 -193 -4 -2 -8 -10 -8
-17 0 -12 -22 -33 -89 -87 -12 -10 -28 -18 -36 -18 -8 0 -38 -9 -67 -21 -79
-31 -313 -36 -418 -8 -212 55 -324 164 -389 379 -50 167 -51 448 -1 575 4 11
15 41 25 67 24 69 107 191 151 224 22 16 44 34 49 40 26 26 95 64 138 75 33 8
44 14 35 20 -21 14 0 10 23 -3 18 -11 23 -10 32 4 10 14 13 15 31 2 11 -8 43
-14 71 -14z m5 -1900 c0 -5 -12 -10 -26 -10 -14 0 -23 4 -19 10 3 6 15 10 26
10 10 0 19 -4 19 -10z m-110 -10 c0 -5 -9 -10 -21 -10 -11 0 -17 5 -14 10 3 6
13 10 21 10 8 0 14 -4 14 -10z m200 0 c0 -5 -2 -10 -4 -10 -3 0 -8 5 -11 10
-3 6 -1 10 4 10 6 0 11 -4 11 -10z m-423 -6 c-3 -3 -12 -4 -19 -1 -8 3 -5 6 6
6 11 1 17 -2 13 -5z m123 -4 c0 -5 -4 -10 -9 -10 -6 0 -13 5 -16 10 -3 6 1 10
9 10 9 0 16 -4 16 -10z m515 0 c3 -5 1 -10 -4 -10 -6 0 -11 5 -11 10 0 6 2 10
4 10 3 0 8 -4 11 -10z m-990 -10 c3 -5 1 -10 -4 -10 -6 0 -11 5 -11 10 0 6 2
10 4 10 3 0 8 -4 11 -10z m1095 0 c0 -5 -4 -10 -10 -10 -5 0 -10 5 -10 10 0 6
5 10 10 10 6 0 10 -4 10 -10z m310 -10 c0 -5 -5 -10 -11 -10 -5 0 -7 5 -4 10
3 6 8 10 11 10 2 0 4 -4 4 -10z m-817 -40 c-3 -12 -8 -19 -11 -16 -5 6 5 36
12 36 2 0 2 -9 -1 -20z m167 -10 c0 -5 -7 -7 -15 -4 -8 4 -15 8 -15 10 0 2 7
4 15 4 8 0 15 -4 15 -10z m147 -32 c-3 -8 -6 -5 -6 6 -1 11 2 17 5 13 3 -3 4
-12 1 -19z m-20 -424 c-3 -3 -12 -4 -19 -1 -8 3 -5 6 6 6 11 1 17 -2 13 -5z
m-389 -100 c-10 -9 -58 -12 -58 -3 0 5 14 9 32 9 17 0 29 -3 26 -6z m137 -4
c-3 -5 -19 -10 -35 -10 -16 0 -32 5 -35 10 -4 6 10 10 35 10 25 0 39 -4 35
-10z m135 6 c0 -8 -51 -13 -56 -5 -3 5 9 9 25 9 17 0 31 -2 31 -4z m93 -3 c-7
-2 -21 -2 -30 0 -10 3 -4 5 12 5 17 0 24 -2 18 -5z m155 -10 c-10 -2 -26 -2
-35 0 -10 3 -2 5 17 5 19 0 27 -2 18 -5z m-413 -102 c-6 -5 -28 -6 -50 -1
l-40 8 50 1 c29 1 45 -3 40 -8z m232 3 c-3 -3 -12 -4 -19 -1 -8 3 -5 6 6 6 11
1 17 -2 13 -5z m-540 -10 c-3 -3 -12 -4 -19 -1 -8 3 -5 6 6 6 11 1 17 -2 13
-5z m86 -111 c-7 -2 -21 -2 -30 0 -10 3 -4 5 12 5 17 0 24 -2 18 -5z m285 0
c-10 -2 -28 -2 -40 0 -13 2 -5 4 17 4 22 1 32 -1 23 -4z m402 -3 c0 -13 -11
-13 -30 0 -12 8 -11 10 8 10 12 0 22 -4 22 -10z m237 -6 c-3 -3 -12 -4 -19 -1
-8 3 -5 6 6 6 11 1 17 -2 13 -5z m-907 -114 c0 -6 -24 -10 -52 -9 -42 1 -48 3
-28 9 36 12 80 12 80 0z m124 0 c-6 -6 -21 -6 -39 -1 -30 9 -30 9 10 10 25 1
36 -2 29 -9z m158 -2 c-8 -8 -20 -8 -44 -1 l-33 11 45 1 c33 1 41 -2 32 -11z
m154 4 c-5 -9 -74 -7 -83 2 -4 3 15 6 41 6 26 0 45 -3 42 -8z m104 -3 c0 -5
-9 -9 -20 -9 -11 0 -20 4 -20 8 0 4 9 8 20 9 11 1 20 -2 20 -8z m35 1 c3 -5
-1 -10 -9 -10 -9 0 -16 5 -16 10 0 6 4 10 9 10 6 0 13 -4 16 -10z m95 2 c0 -4
-10 -9 -22 -9 -18 -2 -20 0 -8 7 18 12 30 13 30 2z m37 -8 c-3 -3 -12 -4 -19
-1 -8 3 -5 6 6 6 11 1 17 -2 13 -5z m-442 -124 c-16 -3 -39 -4 -50 -1 -14 4
-8 7 20 11 48 7 73 -2 30 -10z m-278 4 c-3 -3 -12 -4 -19 -1 -8 3 -5 6 6 6 11
1 17 -2 13 -5z m141 -1 c-15 -2 -42 -2 -60 0 -18 2 -6 4 27 4 33 0 48 -2 33
-4z m295 0 c-13 -2 -35 -2 -50 0 -16 2 -5 4 22 4 28 0 40 -2 28 -4z m100 0
c-7 -2 -19 -2 -25 0 -7 3 -2 5 12 5 14 0 19 -2 13 -5z m207 -2 c0 -9 -80 -5
-89 5 -2 2 17 4 42 4 26 0 47 -4 47 -9z m-947 -8 c-7 -2 -19 -2 -25 0 -7 3 -2
5 12 5 14 0 19 -2 13 -5z m1087 -3 c12 -8 11 -10 -5 -9 -11 1 -33 5 -50 9
l-30 8 35 1 c19 0 42 -4 50 -9z m217 -16 c-3 -3 -12 -4 -19 -1 -8 3 -5 6 6 6
11 1 17 -2 13 -5z m-977 -244 c0 -5 -4 -10 -10 -10 -5 0 -10 5 -10 10 0 6 5
10 10 10 6 0 10 -4 10 -10z m164 -7 c-5 -17 -5 -16 6 0 14 22 46 14 70 -16 16
-19 17 -19 23 -2 5 13 3 16 -8 11 -8 -3 -15 -1 -15 4 0 6 11 10 25 10 27 0 28
-3 19 -37 -4 -15 -12 -20 -27 -17 -12 2 -24 -1 -28 -7 -4 -7 -12 -5 -22 5 -8
9 -21 14 -29 11 -15 -6 -42 31 -33 45 10 17 25 11 19 -7z m191 -6 c6 -5 3 -7
-7 -3 -21 6 -23 -5 -6 -22 9 -9 9 -12 0 -12 -18 0 -31 32 -18 46 6 6 13 9 16
6 3 -4 10 -11 15 -15z m125 14 c0 -6 -4 -12 -9 -15 -4 -3 -7 -17 -6 -31 4 -30
0 -31 -27 -5 -19 18 -23 18 -31 5 -4 -8 -5 -20 -2 -25 3 -6 1 -10 -4 -10 -6 0
-11 8 -11 18 0 9 -3 27 -6 40 -7 26 16 31 39 8 11 -12 15 -11 25 5 13 20 32
26 32 10z m-896 -16 c18 -13 18 -14 -3 -12 -11 1 -21 5 -21 9 0 4 -5 8 -11 8
-8 0 -9 -11 -5 -32 4 -24 3 -29 -4 -18 -5 8 -10 25 -10 38 0 26 25 29 54 7z
m132 2 c11 4 12 0 6 -18 -5 -13 -15 -25 -22 -27 -7 -3 -10 0 -6 6 4 7 2 22 -5
34 -9 18 -9 21 1 11 7 -6 19 -9 26 -6z m104 -7 c-6 -11 -12 -20 -14 -20 -2 0
-2 9 1 20 3 11 9 20 15 20 5 0 4 -9 -2 -20z m65 -2 c-6 -22 -6 -22 15 2 l21
25 -7 -25 c-6 -23 -6 -24 11 -10 16 13 18 13 13 0 -3 -10 -18 -15 -42 -16 -28
0 -36 3 -31 13 3 8 5 19 5 24 0 5 5 9 11 9 6 0 8 -9 4 -22z m242 15 c-4 -3 -2
-12 4 -19 7 -9 7 -19 -1 -35 -10 -17 -14 -19 -21 -8 -16 25 -11 69 8 69 9 0
13 -3 10 -7z m508 -21 c-3 -8 2 -23 11 -33 19 -21 6 -27 -14 -7 -9 9 -12 9
-12 -1 0 -10 -3 -11 -14 -2 -8 7 -12 22 -9 34 2 15 -1 12 -10 -8 -7 -16 -18
-29 -22 -27 -5 2 -11 -1 -13 -6 -4 -12 88 -26 158 -25 25 1 51 -4 58 -9 8 -8
12 -7 12 3 0 12 2 12 9 0 7 -11 11 -10 19 5 5 11 7 26 4 34 -3 12 -2 12 8 3 7
-6 19 -9 26 -6 8 3 14 0 14 -6 0 -10 -14 -15 -33 -12 -5 1 -7 -4 -5 -11 3 -7
15 -12 26 -10 17 3 22 -2 23 -20 0 -22 1 -22 9 -3 8 19 8 19 18 -5 10 -22 11
-23 11 -4 1 16 7 21 31 21 21 0 30 -5 30 -16 1 -13 3 -13 15 3 8 11 19 15 27
10 7 -4 33 -9 58 -10 25 -1 74 -4 110 -8 146 -15 236 -23 250 -24 8 0 49 -7
90 -16 41 -9 85 -16 98 -16 25 0 46 -37 31 -56 -4 -5 -6 -20 -2 -32 3 -13 1
-22 -6 -22 -6 0 -11 -6 -11 -14 0 -45 -108 -196 -141 -196 -4 0 -27 -13 -51
-28 -77 -51 -293 -90 -486 -88 -62 1 -102 -3 -102 -9 0 -6 -3 -6 -8 1 -4 5
-31 10 -60 11 -30 0 -59 6 -65 12 -6 6 -19 11 -28 11 -18 0 -47 14 -92 44 -28
19 -89 118 -106 172 -38 120 -57 219 -40 208 6 -3 5 3 -2 15 -12 17 -10 24 7
48 12 15 33 29 47 31 26 3 43 27 27 37 -6 4 -10 14 -10 23 0 15 2 15 11 2 8
-12 12 -12 16 -2 4 10 8 10 19 1 11 -9 14 -8 14 4 0 16 26 26 48 19 7 -3 11
-11 7 -20z m-965 8 c0 -5 -4 -10 -10 -10 -5 0 -10 5 -10 10 0 6 5 10 10 10 6
0 10 -4 10 -10z m835 -17 c0 -14 -5 -28 -12 -30 -8 -3 -11 5 -9 24 4 34 4 33
14 33 4 0 8 -12 7 -27z m175 17 c0 -5 -4 -10 -10 -10 -5 0 -7 -7 -4 -15 4 -8
1 -15 -5 -15 -12 0 -14 11 -5 34 7 18 24 22 24 6z m120 -55 c-1 -5 -9 0 -19
13 -19 22 -38 31 -26 12 3 -5 1 -18 -4 -27 -12 -21 -13 -19 -16 22 -1 17 3 33
9 37 10 7 56 -40 56 -57z m-775 45 c3 -6 0 -17 -8 -25 -13 -13 -16 -13 -21 1
-10 27 15 47 29 24z m695 -11 c0 -6 -4 -7 -10 -4 -5 3 -10 11 -10 16 0 6 5 7
10 4 6 -3 10 -11 10 -16z m145 -17 c-3 -4 -10 0 -15 8 -7 11 -10 12 -10 2 0
-7 -5 -10 -11 -7 -6 5 -4 12 8 20 15 11 19 11 26 -2 5 -8 6 -17 2 -21z m-790
18 c3 -5 1 -10 -4 -10 -6 0 -11 5 -11 10 0 6 2 10 4 10 3 0 8 -4 11 -10z m925
0 c0 -5 -5 -10 -11 -10 -5 0 -7 5 -4 10 3 6 8 10 11 10 2 0 4 -4 4 -10z m90
-20 c0 -5 -4 -10 -10 -10 -5 0 -10 5 -10 10 0 6 5 10 10 10 6 0 10 -4 10 -10z
m76 -12 c11 14 12 12 2 -15 l-12 -32 -13 31 c-16 36 -16 52 -1 21 10 -21 12
-22 24 -5z m-246 -18 c0 -14 -43 -5 -48 10 -5 13 -3 13 12 1 15 -12 16 -12 9
5 -6 17 -5 17 10 5 9 -7 17 -17 17 -21z m50 -5 c0 -5 -5 -3 -10 5 -5 8 -10 20
-10 25 0 6 5 3 10 -5 5 -8 10 -19 10 -25z m269 28 c0 -5 -4 -17 -9 -28 -8 -18
-9 -17 -9 8 -1 15 4 27 9 27 6 0 10 -3 9 -7z m-1359 -39 c0 -3 -8 -4 -17 -2
-12 2 -17 -4 -17 -25 -1 -16 -9 -34 -18 -41 -10 -7 -15 -16 -11 -20 4 -3 -1
-12 -10 -19 -18 -13 -34 -97 -19 -97 4 0 18 9 30 21 13 11 31 22 42 24 15 3
18 -1 15 -23 -8 -62 -38 -159 -67 -213 -18 -35 -100 -119 -115 -119 -7 0 -13
-4 -13 -8 0 -4 -24 -17 -52 -27 -79 -29 -396 -31 -523 -4 -100 21 -169 50
-178 73 -4 10 -19 16 -39 16 -55 0 -73 9 -103 55 -19 28 -40 46 -58 50 -15 4
-25 10 -23 14 5 8 -13 67 -27 89 -5 7 -4 12 3 12 6 0 9 4 6 9 -13 20 -16 82
-7 100 8 14 8 21 -2 24 -6 2 -3 3 7 1 11 -2 26 2 33 7 6 6 22 12 35 14 13 3
59 11 103 20 44 9 136 20 205 25 69 6 137 12 151 16 24 5 25 4 21 -25 -5 -33
8 -40 28 -16 7 8 18 15 24 15 7 0 6 -4 -2 -9 -11 -7 -11 -9 2 -14 9 -4 16 -2
16 4 0 6 9 8 20 4 20 -6 25 6 21 42 -1 7 11 15 26 19 15 3 35 8 43 11 8 3 93
7 189 9 97 1 178 7 183 12 9 9 98 -13 98 -24z m297 30 c-3 -3 -12 -4 -19 -1
-8 3 -5 6 6 6 11 1 17 -2 13 -5z m1175 -26 c-7 -7 -12 -8 -12 -2 0 6 3 14 7
17 3 4 9 5 12 2 2 -3 -1 -11 -7 -17z m-1043 -142 c22 -20 45 -89 57 -170 3
-26 17 -67 30 -90 12 -22 26 -58 29 -78 4 -21 13 -38 20 -38 25 0 45 12 38 24
-3 6 14 -8 38 -31 60 -57 119 -81 238 -95 236 -28 703 42 857 128 l45 25 -5
-25 c-2 -14 1 -27 7 -29 7 -3 0 -8 -15 -12 -16 -4 -28 -13 -28 -21 0 -8 -5
-14 -11 -14 -5 0 -7 -4 -4 -10 3 -5 1 -10 -5 -10 -7 0 -9 -8 -5 -19 4 -12 0
-21 -11 -25 -11 -4 -14 -13 -11 -27 5 -17 3 -18 -10 -7 -15 12 -16 9 -10 -19
5 -25 2 -35 -11 -42 -9 -6 -12 -11 -7 -11 6 0 3 -5 -5 -10 -12 -8 -13 -13 -2
-30 7 -11 9 -19 5 -18 -8 3 -53 -37 -53 -46 0 -3 -5 -17 -11 -33 -6 -15 -13
-41 -14 -57 -2 -16 -10 -33 -19 -38 -9 -5 -16 -20 -16 -33 0 -23 -23 -55 -40
-55 -10 0 -7 -70 3 -88 5 -6 4 -12 -2 -12 -6 0 -11 5 -11 10 0 6 -5 10 -10 10
-6 0 -10 -8 -8 -17 2 -10 -3 -18 -12 -18 -10 0 -17 -14 -21 -45 -5 -40 -6 -41
-7 -11 -2 35 -13 36 -19 1 -2 -11 -4 -29 -6 -39 -4 -26 -67 -102 -78 -95 -5 3
-16 -2 -25 -11 -15 -15 -15 -17 0 -34 26 -29 18 -33 -15 -9 -17 13 -40 43 -52
67 -11 25 -23 39 -25 33 -2 -7 -9 -9 -15 -5 -13 8 52 -83 70 -99 18 -15 16
-25 -6 -31 -15 -4 -18 -11 -14 -28 5 -24 5 -24 -12 -4 -16 20 -17 20 -10 0 5
-17 3 -17 -19 4 -15 14 -26 29 -26 35 0 5 7 1 15 -10 14 -19 14 -19 15 2 0 11
-6 26 -12 33 -11 10 -10 11 4 6 9 -4 18 -16 21 -27 3 -11 10 -17 16 -14 14 9
3 35 -36 80 -18 22 -33 44 -33 48 0 5 -5 6 -10 3 -6 -3 -15 4 -20 17 l-11 23
5 -23 c3 -18 0 -22 -12 -20 -9 2 -25 -4 -36 -14 -17 -16 -17 -18 -2 -33 20
-20 21 -32 2 -16 -11 9 -15 9 -19 -1 -4 -9 -6 -8 -6 3 -1 8 -12 26 -26 39 -27
25 -32 21 -14 -12 18 -34 0 -34 -29 1 l-27 33 -2 -32 c-1 -18 2 -41 8 -51 5
-11 7 -19 3 -19 -10 0 -44 41 -44 53 0 6 -3 8 -6 5 -3 -3 2 -22 10 -42 8 -20
11 -36 5 -36 -5 0 -9 -6 -9 -14 0 -8 -6 -16 -12 -19 -10 -3 -10 -10 1 -30 11
-20 17 -24 27 -16 10 8 19 5 36 -11 12 -11 24 -16 26 -10 2 5 8 8 13 4 5 -3 9
1 10 8 1 15 28 -41 29 -60 0 -7 -4 -10 -10 -7 -7 4 -7 -2 0 -19 5 -15 5 -37 0
-56 -5 -18 -9 -35 -8 -39 2 -18 -3 -22 -16 -12 -11 9 -15 6 -20 -14 -4 -14
-11 -23 -16 -20 -6 3 -10 -3 -10 -15 0 -18 -3 -19 -21 -10 -19 10 -20 10 -10
-9 6 -11 11 -27 11 -36 0 -26 -18 -8 -25 25 -4 16 -10 32 -13 34 -11 7 -1 -88
10 -102 6 -7 8 -15 5 -19 -4 -3 -2 -12 4 -20 8 -9 8 -13 1 -13 -6 0 -13 4 -16
9 -3 5 -15 11 -25 14 -17 4 -19 1 -14 -24 6 -31 -12 -40 -35 -17 -8 8 -12 9
-12 1 0 -6 11 -20 25 -31 23 -18 23 -20 6 -25 -15 -4 -24 4 -36 30 -23 48 -27
37 -10 -27 13 -51 9 -84 -11 -80 -5 1 -10 -4 -13 -11 -2 -7 1 -9 8 -5 9 6 10
0 5 -21 -8 -33 -14 -42 -14 -21 0 9 -11 18 -23 22 -13 3 -29 16 -35 28 -13 26
-13 26 2 -57 5 -28 5 -28 -6 -7 -13 25 -28 29 -28 7 0 -8 -5 -15 -11 -15 -6 0
-9 -7 -6 -14 4 -10 -2 -18 -16 -22 -12 -4 -30 -17 -40 -30 -19 -25 -37 -31
-37 -13 0 5 4 8 9 4 5 -3 12 -1 16 4 3 6 -5 8 -19 5 -28 -5 -39 15 -29 54 5
23 4 25 -9 14 -11 -9 -14 -25 -10 -61 3 -31 0 -51 -8 -56 -7 -5 -11 -1 -10 11
4 36 -1 50 -10 29 l-9 -20 -1 20 c0 15 -5 11 -16 -14 -8 -19 -11 -44 -8 -55 6
-21 6 -21 -13 -1 -11 11 -18 27 -16 35 2 8 -3 5 -12 -7 -19 -25 -45 -20 -45 8
0 12 5 16 15 13 12 -5 15 2 14 32 -1 22 -3 31 -6 22 -2 -10 -11 -18 -19 -18
-8 0 -12 -4 -9 -10 3 -5 1 -10 -4 -10 -6 0 -11 -16 -11 -35 0 -19 -4 -35 -10
-35 -5 0 -10 18 -10 40 0 29 -4 40 -15 40 -12 0 -15 16 -15 84 0 62 4 87 15
96 8 7 15 29 15 49 0 27 -3 32 -10 21 -7 -11 -9 -8 -7 14 1 16 -4 31 -10 33
-7 3 -13 -2 -13 -11 0 -9 -4 -16 -10 -16 -13 0 -13 13 1 27 16 16 -4 47 -43
66 -36 17 -47 15 -29 -6 7 -9 9 -38 6 -78 -4 -63 -4 -63 11 -34 l15 30 -5 -37
c-5 -42 0 -47 21 -20 13 15 14 13 8 -23 -4 -22 -11 -41 -16 -43 -20 -8 -8 -24
14 -20 24 5 30 -13 13 -40 -4 -7 -7 -27 -5 -45 2 -40 -10 -89 -22 -82 -8 6 -3
110 6 126 4 5 1 9 -5 9 -6 0 -13 -13 -16 -30 -8 -35 -25 -41 -18 -6 2 13 -2
28 -9 34 -9 8 -12 -2 -14 -46 -3 -87 -41 -249 -44 -186 0 14 -4 11 -14 -11
-12 -27 -13 -21 -8 60 3 63 1 86 -6 75 -5 -8 -13 -31 -16 -52 -7 -38 -34 -61
-36 -30 -1 11 -4 8 -9 -8 -7 -23 -8 -23 -10 10 l-2 35 -7 -30 -7 -30 -12 40
c-7 22 -12 46 -12 53 0 14 -16 16 -25 2 -10 -16 -28 -11 -21 6 3 8 2 12 -4 9
-6 -4 -7 6 -4 25 7 34 -10 42 -19 8 -5 -18 -8 -19 -21 -9 -9 7 -22 11 -30 8
-10 -4 -17 3 -21 23 -4 16 -4 34 -1 39 8 13 -18 21 -44 14 -19 -5 -21 -3 -16
14 5 17 2 21 -19 21 -17 0 -25 -6 -25 -19 0 -10 -4 -21 -10 -24 -12 -8 -13 11
-1 52 7 23 6 32 -2 30 -6 -1 -17 11 -25 27 -12 24 -12 30 -1 38 10 7 8 8 -8 5
-31 -7 -37 19 -13 50 11 14 20 31 20 37 0 6 -7 0 -16 -13 -11 -14 -19 -19 -23
-12 -4 6 -20 12 -35 13 l-28 2 44 38 43 38 -39 -20 -39 -20 -15 22 c-11 15
-12 25 -4 38 9 15 5 17 -31 18 -22 1 -42 4 -44 6 -2 2 5 20 16 40 22 38 21 39
-36 36 -42 -2 -58 7 -42 26 9 11 8 14 -5 14 -9 0 -16 5 -16 10 0 6 6 10 14 10
8 0 18 5 22 12 4 7 3 8 -5 4 -6 -4 -18 -2 -26 4 -8 6 -19 9 -25 5 -15 -10 -24
23 -10 40 10 12 9 16 -5 21 -12 5 -15 14 -10 31 6 24 5 24 -17 9 -30 -22 -48
-20 -48 4 0 11 -7 20 -15 20 -9 0 -18 8 -22 17 -3 10 -13 26 -20 35 -8 9 -12
22 -8 27 3 6 2 11 -4 11 -5 0 -13 -4 -16 -10 -10 -16 -28 -12 -21 5 3 8 1 15
-4 15 -6 0 -10 10 -10 23 -1 28 -22 57 -44 57 -19 0 -20 13 -5 42 10 19 9 20
-10 15 -12 -3 -19 -1 -16 4 3 4 -4 18 -16 30 -15 15 -18 24 -11 31 8 8 4 17
-14 30 -19 15 -23 26 -19 50 5 25 3 29 -10 24 -11 -4 -20 6 -31 34 -9 22 -22
40 -30 40 -8 0 -14 5 -14 10 0 6 5 10 10 10 6 0 10 7 10 15 0 9 -6 12 -15 9
-11 -5 -17 3 -22 26 -4 21 -16 38 -34 49 -20 11 -27 21 -23 34 3 10 2 17 -3
16 -20 -3 -34 2 -28 11 3 5 13 6 22 3 11 -4 14 -3 9 5 -4 7 -16 12 -26 12 -10
0 -22 5 -25 10 -4 6 -3 9 2 8 4 -2 9 2 10 7 1 6 -5 9 -14 8 -11 -1 -12 2 -4
10 16 16 14 47 -3 53 -8 3 -15 13 -14 22 0 25 -27 93 -35 87 -4 -3 -5 -2 -2 2
3 3 0 12 -6 20 -14 17 -11 16 42 -2 252 -89 796 -108 955 -33 25 11 75 50 112
87 36 36 60 58 53 48 -12 -15 -12 -17 2 -11 9 3 19 15 23 26 4 13 9 16 13 10
4 -6 22 42 40 108 19 66 44 142 57 169 28 61 53 71 175 68 69 -2 91 -6 108
-21z m1413 -94 c-41 -94 -89 -165 -125 -183 -13 -7 -5 6 20 32 43 46 88 128
120 217 10 30 19 47 21 39 2 -8 -15 -55 -36 -105z m-3597 48 c3 -5 -1 -10 -10
-10 -9 0 -13 5 -10 10 3 6 8 10 10 10 2 0 7 -4 10 -10z m536 -245 c7 -13 3
-12 -10 5 -11 14 -21 30 -21 35 0 11 14 -7 31 -40z m2959 -20 c0 -2 -10 -10
-22 -16 -21 -11 -22 -11 -9 4 13 16 31 23 31 12z m-996 -60 c11 -8 15 -15 10
-15 -6 0 -19 7 -30 15 -10 8 -14 14 -9 14 6 0 19 -6 29 -14z m-1898 -20 c10
-8 15 -14 9 -14 -5 0 -19 6 -29 14 -11 8 -15 15 -10 15 6 0 19 -7 30 -15z
m2859 -340 c30 -54 25 -52 -18 6 -14 20 -23 39 -20 43 4 3 7 5 8 4 1 -2 14
-25 30 -53z m-37 -40 c-3 -3 -9 2 -12 12 -6 14 -5 15 5 6 7 -7 10 -15 7 -18z
m-498 -456 c0 -6 -4 -7 -10 -4 -5 3 -10 11 -10 16 0 6 5 7 10 4 6 -3 10 -11
10 -16z m19 -174 c8 -4 8 -12 0 -27 -9 -17 -13 -18 -20 -7 -7 11 -9 10 -9 -4
0 -10 -4 -15 -10 -12 -20 12 -11 45 12 45 17 0 19 3 10 12 -7 7 -12 19 -11 28
0 9 3 7 9 -6 5 -12 13 -25 19 -29z m26 6 c-6 -5 -25 10 -25 20 0 5 6 4 14 -3
8 -7 12 -15 11 -17z m-2155 10 c0 -6 -5 -13 -10 -16 -8 -5 -7 -11 1 -21 6 -8
8 -14 3 -14 -5 0 -2 -4 6 -10 18 -11 7 -25 -15 -17 -19 8 -18 87 2 87 7 0 13
-4 13 -9z m33 -149 c26 -38 56 -50 43 -16 -3 8 1 14 9 14 15 0 17 -38 2 -57
-12 -16 0 -33 23 -33 10 0 20 -7 24 -15 3 -9 12 -12 22 -8 11 4 15 3 10 -5 -3
-6 -2 -13 3 -16 26 -17 -14 -762 -69 -1275 -11 -99 -21 -134 -18 -62 1 28 -4
46 -13 52 -11 7 -11 9 4 9 10 0 17 8 17 20 0 13 -7 20 -20 20 -15 0 -20 -7
-20 -27 0 -16 -4 -34 -9 -42 -6 -9 -8 7 -8 45 2 46 -1 59 -13 59 -9 0 -15 -10
-16 -25 0 -14 -3 -31 -8 -38 -4 -7 -6 -22 -5 -35 1 -12 -2 -30 -6 -41 -5 -12
-3 -21 6 -27 9 -6 10 -9 2 -9 -19 0 -34 35 -21 48 16 16 2 42 -22 42 -17 0
-20 6 -20 45 0 34 -4 45 -15 45 -23 0 -32 -32 -13 -44 14 -8 13 -11 -5 -26
-24 -20 -14 -44 14 -37 10 3 22 1 25 -4 3 -5 -6 -9 -21 -9 -14 0 -28 -7 -31
-15 -4 -8 -13 -15 -22 -15 -12 0 -13 3 -4 12 7 7 12 21 12 31 0 15 -5 18 -24
15 -17 -4 -23 -1 -19 8 7 19 -27 30 -38 13 -14 -22 -11 30 16 357 32 391 31
383 55 377 11 -3 20 -1 21 3 0 5 2 25 4 44 2 19 -1 41 -7 48 -7 8 -7 12 2 12
8 0 11 9 7 28 -6 30 11 61 30 55 10 -4 9 -8 -2 -20 -12 -12 -13 -18 -4 -29 9
-11 9 -18 -1 -29 -13 -16 -6 -35 15 -35 10 0 14 11 14 33 0 17 2 41 4 52 2 11
-2 32 -9 47 -8 15 -15 40 -16 55 -1 19 -3 14 -8 -17 -7 -44 -7 -45 -8 -8 -3
52 5 66 34 60 14 -2 24 0 24 7 0 6 -7 11 -16 11 -12 0 -14 10 -12 51 2 43 7
53 26 60 20 8 22 6 16 -16 -5 -21 -3 -25 15 -25 22 0 30 29 9 31 -10 0 -10 2
0 6 28 11 9 23 -33 20 -31 -2 -45 1 -45 9 0 7 8 10 21 7 19 -5 20 -4 10 15
-16 31 -14 56 9 80 24 25 26 42 5 42 -16 0 -20 34 -9 89 9 45 40 38 77 -17z
m1981 -38 c5 -14 4 -15 -9 -4 -17 14 -19 20 -6 20 5 0 12 -7 15 -16z m269
-148 c0 -14 3 -23 8 -20 5 3 9 1 9 -4 0 -16 -12 -21 -24 -9 -19 19 -26 45 -13
50 9 3 8 9 -2 23 -14 18 -14 18 3 2 10 -9 19 -28 19 -42z m-353 3 c0 -6 -4 -7
-10 -4 -5 3 -10 11 -10 16 0 6 5 7 10 4 6 -3 10 -11 10 -16z m-25 -49 c3 -6
-1 -7 -9 -4 -18 7 -21 14 -7 14 6 0 13 -4 16 -10z m357 -9 c-4 -19 27 -71 43
-71 8 0 15 -4 15 -10 0 -13 -6 -13 -30 0 -13 7 -21 7 -26 -2 -4 -6 -3 -8 4 -4
6 4 12 -3 14 -16 2 -13 9 -22 16 -20 6 1 12 -5 12 -13 0 -8 -6 -12 -14 -9 -7
3 -16 -2 -19 -10 -7 -17 8 -30 23 -21 6 3 10 0 10 -8 0 -8 -8 -14 -17 -13 -10
0 -18 -6 -18 -14 0 -8 8 -14 18 -14 19 2 20 -3 11 -59 -5 -29 -10 -35 -19 -27
-9 8 -15 8 -20 0 -9 -15 3 -30 20 -23 10 3 15 -1 15 -12 0 -11 -5 -15 -14 -12
-18 7 -42 -18 -26 -28 5 -3 15 -3 20 0 6 4 10 -13 10 -44 0 -52 -6 -61 -28
-39 -9 9 -12 7 -12 -11 0 -17 4 -22 16 -17 15 6 16 -2 10 -66 -9 -98 -64 -482
-72 -502 -3 -9 -10 -13 -16 -10 -5 3 -16 3 -24 0 -11 -4 -12 -10 -4 -25 5 -11
6 -22 1 -25 -5 -3 -11 -15 -14 -27 -5 -18 -2 -20 19 -16 14 2 24 -1 24 -7 0
-6 -13 -11 -30 -11 -20 0 -30 5 -30 15 0 9 -10 16 -25 16 -21 2 -23 -1 -15
-16 5 -10 13 -20 17 -22 5 -3 3 -3 -4 -2 -7 2 -15 -1 -18 -6 -4 -6 -12 -10
-18 -9 -9 0 -9 2 1 6 17 7 15 30 -3 37 -8 3 -15 12 -15 21 0 18 -12 19 -28 3
-9 -9 -13 -7 -19 8 -3 10 -15 25 -25 32 -22 16 -24 42 -3 42 18 0 19 12 3 29
-11 10 -10 14 5 22 23 14 22 39 -3 39 -14 0 -20 -7 -20 -22 0 -18 -2 -20 -9
-9 -6 9 -6 22 -1 32 12 22 16 72 6 87 -4 7 -2 12 3 12 6 0 11 12 11 26 0 38
-34 28 -37 -11 -2 -25 -9 -73 -12 -82 -1 -2 -1 -5 -2 -8 0 -2 -4 -17 -8 -33
-5 -16 -5 -36 1 -45 7 -13 5 -17 -7 -17 -20 0 -20 -1 12 173 20 109 29 143 35
127 9 -25 31 -22 36 4 3 11 -4 19 -18 23 -20 5 -21 10 -16 62 11 90 57 344 67
363 5 9 9 26 9 37 0 19 11 26 33 22 5 -1 11 8 14 19 3 11 9 18 13 15 14 -9 20
26 9 47 -8 14 -8 23 0 31 8 8 11 5 11 -12 0 -20 2 -21 15 -11 8 7 13 15 11 19
-3 4 0 13 6 21 8 12 9 12 4 -3 -7 -21 20 -35 36 -19 8 8 7 13 -5 18 -9 3 -17
14 -17 24 0 13 6 16 26 12 18 -3 25 -1 20 6 -4 6 2 8 14 5 14 -4 20 0 20 12 0
9 -9 19 -20 22 -22 6 -27 29 -8 35 22 8 53 1 50 -11z m31 -16 c4 -8 2 -17 -3
-20 -6 -4 -10 3 -10 14 0 25 6 27 13 6z m-123 -5 c0 -5 -4 -10 -10 -10 -5 0
-10 5 -10 10 0 6 5 10 10 10 6 0 10 -4 10 -10z m-2251 -42 c0 -27 -2 -29 -8
-13 -5 11 -6 26 -4 33 8 21 13 13 12 -20z m1362 -49 c-9 -22 -10 -22 -10 -3
-1 11 2 24 6 27 12 12 14 0 4 -24z m-1408 -4 c-7 -21 -13 -19 -13 6 0 11 4 18
10 14 5 -3 7 -12 3 -20z m4 -101 c-3 -3 -12 -4 -19 -1 -8 3 -5 6 6 6 11 1 17
-2 13 -5z m-20 -56 c-3 -7 -5 -2 -5 12 0 14 2 19 5 13 2 -7 2 -19 0 -25z
m1350 -68 c1 -42 -11 -54 -22 -20 -7 21 2 60 13 60 4 0 8 -18 9 -40z m-330
-12 c-3 -8 -6 -5 -6 6 -1 11 2 17 5 13 3 -3 4 -12 1 -19z m380 0 c-3 -8 -6 -5
-6 6 -1 11 2 17 5 13 3 -3 4 -12 1 -19z m-1410 -45 c-3 -10 -5 -2 -5 17 0 19
2 27 5 18 2 -10 2 -26 0 -35z m1080 25 c-3 -8 -6 -5 -6 6 -1 11 2 17 5 13 3
-3 4 -12 1 -19z m640 0 c-3 -8 -6 -5 -6 6 -1 11 2 17 5 13 3 -3 4 -12 1 -19z
m-49 -39 c-3 -8 -7 -3 -11 10 -4 17 -3 21 5 13 5 -5 8 -16 6 -23z m-228 6 c0
-8 -4 -15 -10 -15 -5 0 -10 7 -10 15 0 8 5 15 10 15 6 0 10 -7 10 -15z m122
-50 c-4 -26 -22 -45 -22 -25 0 12 18 50 24 50 2 0 1 -11 -2 -25z m65 -57 c-3
-7 -5 -2 -5 12 0 14 2 19 5 13 2 -7 2 -19 0 -25z m-290 -120 c-3 -8 -6 -5 -6
6 -1 11 2 17 5 13 3 -3 4 -12 1 -19z m410 0 c-3 -8 -6 -5 -6 6 -1 11 2 17 5
13 3 -3 4 -12 1 -19z m303 -428 c0 -5 -4 -10 -10 -10 -5 0 -10 5 -10 10 0 6 5
10 10 10 6 0 10 -4 10 -10z m-13 -50 c1 -11 -2 -20 -8 -20 -10 0 -12 23 -2 33
9 9 9 10 10 -13z m313 -9 c0 -6 -4 -13 -10 -16 -5 -3 -10 1 -10 9 0 9 5 16 10
16 6 0 10 -4 10 -9z m-323 -63 c-3 -7 -5 -2 -5 12 0 14 2 19 5 13 2 -7 2 -19
0 -25z m-2095 -44 c-6 -35 -12 -29 -12 14 0 23 3 32 9 24 4 -7 6 -24 3 -38z
m2144 13 c8 -18 7 -26 -3 -36 -9 -8 -10 -17 -4 -30 7 -13 5 -20 -10 -29 -10
-7 -19 -8 -19 -3 0 6 3 12 8 15 4 2 7 27 7 55 0 56 5 62 21 28z m-53 -2 c-3
-9 -8 -14 -10 -11 -3 3 -2 9 2 15 9 16 15 13 8 -4z m104 -10 c-4 -8 -12 -15
-19 -14 -10 0 -10 2 0 6 6 2 12 12 12 21 0 8 3 13 6 9 4 -3 4 -13 1 -22z
m-2143 -1 c3 -8 2 -12 -4 -9 -6 3 -10 10 -10 16 0 14 7 11 14 -7z m98 -26 c-8
-8 -9 -4 -5 13 4 13 8 18 11 10 2 -7 -1 -18 -6 -23z m102 -2 c-3 -15 -8 -25
-11 -23 -2 3 -1 17 3 31 3 15 8 25 11 23 2 -3 1 -17 -3 -31z m-157 -30 c-15
-31 -20 -27 -11 8 3 14 10 24 14 21 5 -3 3 -16 -3 -29z m-110 -18 c-3 -8 -6
-5 -6 6 -1 11 2 17 5 13 3 -3 4 -12 1 -19z m2084 -25 c-12 -20 -14 -14 -5 12
4 9 9 14 11 11 3 -2 0 -13 -6 -23z m106 5 c-3 -8 -6 -5 -6 6 -1 11 2 17 5 13
3 -3 4 -12 1 -19z m-1972 2 c3 -5 1 -10 -4 -10 -6 0 -11 5 -11 10 0 6 2 10 4
10 3 0 8 -4 11 -10z m-68 -42 c-3 -7 -5 -2 -5 12 0 14 2 19 5 13 2 -7 2 -19 0
-25z m1984 9 c-10 -9 -11 -8 -5 6 3 10 9 15 12 12 3 -3 0 -11 -7 -18z m206
-19 c-3 -8 -6 -5 -6 6 -1 11 2 17 5 13 3 -3 4 -12 1 -19z m-147 -12 c0 -2 -7
-9 -15 -16 -13 -11 -14 -10 -9 4 5 14 24 23 24 12z"/>
<path d="M3808 6805 c-2 -3 -38 -11 -79 -19 -55 -10 -76 -11 -81 -2 -6 8 -8 8
-8 -1 0 -14 -59 -48 -67 -39 -3 3 -17 -4 -31 -14 -13 -11 -31 -20 -39 -20 -12
0 -13 -28 -7 -172 6 -175 14 -237 14 -115 0 51 3 67 14 67 8 0 16 -6 19 -12 3
-9 9 -7 20 7 8 11 13 22 11 25 -3 2 -9 -2 -13 -9 -6 -9 -11 -10 -15 -2 -4 6 0
14 9 17 11 5 13 10 5 19 -5 6 -7 15 -3 18 3 4 12 -1 20 -11 13 -15 14 -12 9
24 l-6 41 63 17 c34 10 76 21 92 26 17 4 47 11 68 15 20 3 37 9 38 13 11 114
10 132 -9 132 -10 0 -21 -2 -24 -5z m-251 -151 c-3 -3 -12 -4 -19 -1 -8 3 -5
6 6 6 11 1 17 -2 13 -5z m-27 -138 c0 -3 -4 -8 -10 -11 -5 -3 -10 -1 -10 4 0
6 5 11 10 11 6 0 10 -2 10 -4z"/>
<path d="M3968 6773 c7 -3 16 -2 19 1 4 3 -2 6 -13 5 -11 0 -14 -3 -6 -6z"/>
<path d="M3875 6497 c0 -39 1 -62 3 -49 3 17 10 22 33 22 27 0 29 3 29 35 0
21 -5 35 -12 36 -7 1 -20 2 -28 3 -8 0 -14 7 -12 14 1 6 -1 12 -5 12 -5 0 -8
-33 -8 -73z"/>
<path d="M3756 6543 c-3 -4 -6 -19 -6 -34 0 -27 24 -47 36 -28 3 6 12 8 20 5
10 -4 14 3 14 26 0 17 -3 29 -6 25 -3 -3 -16 -2 -29 3 -13 5 -26 6 -29 3z"/>
<path d="M3420 6420 c-12 -22 3 -100 19 -100 5 0 14 -13 20 -30 5 -16 15 -30
21 -30 6 0 9 4 6 9 -3 5 0 9 7 8 35 -1 42 5 43 33 1 16 -2 27 -6 25 -4 -3 -20
5 -34 16 -31 24 -43 20 -27 -10 7 -13 8 -22 1 -26 -5 -3 -11 -4 -11 -1 -1 3
-3 11 -4 16 -1 6 -3 33 -4 60 -1 52 -13 64 -31 30z"/>
<path d="M4204 6432 c-6 -4 -14 -21 -17 -38 -5 -25 -1 -36 17 -53 28 -26 42
-27 56 0 20 36 -3 99 -35 99 -5 0 -15 -4 -21 -8z m33 -73 c-20 -27 -31 -8 -15
26 10 21 13 23 20 10 6 -10 4 -23 -5 -36z"/>
<path d="M3460 6406 c0 -22 3 -27 11 -19 8 8 8 16 0 30 -9 16 -10 14 -11 -11z"/>
<path d="M3618 6346 c-9 -8 -19 -12 -23 -8 -5 4 -4 0 1 -8 5 -8 9 -32 10 -52
0 -34 -2 -37 -29 -40 -20 -2 -33 -10 -38 -25 -7 -21 -6 -21 19 -12 27 10 98 3
107 -11 3 -4 14 -6 25 -3 11 3 20 0 20 -6 0 -6 11 -17 25 -23 21 -9 28 -8 45
7 21 19 26 50 10 60 -15 9 -12 25 5 25 8 0 15 -6 15 -12 0 -7 10 -2 21 12 11
14 18 20 15 13 -4 -6 -2 -14 3 -17 5 -4 12 3 15 14 3 11 9 29 12 40 4 14 1 20
-10 20 -10 0 -16 9 -16 21 0 18 -2 19 -15 9 -8 -7 -24 -10 -35 -7 -15 4 -21 1
-19 -11 3 -26 -12 -82 -24 -89 -10 -6 -6 29 8 74 7 21 4 22 -48 22 -49 -1 -56
-4 -59 -22 -2 -11 -9 -22 -16 -25 -10 -3 -10 2 0 22 15 34 -1 55 -24 32z m115
-48 c-3 -16 -11 -28 -18 -28 -26 0 -45 12 -45 29 0 12 2 13 9 3 7 -12 12 -12
30 -1 11 8 21 18 21 23 0 5 2 7 4 5 2 -2 2 -16 -1 -31z m114 -10 c-3 -8 -6 -5
-6 6 -1 11 2 17 5 13 3 -3 4 -12 1 -19z m-37 -8 c0 -5 -5 -10 -11 -10 -5 0 -7
5 -4 10 3 6 8 10 11 10 2 0 4 -4 4 -10z"/>
<path d="M4057 6344 c-4 -4 -7 -19 -7 -33 0 -37 -9 -45 -60 -58 -53 -14 -80
-3 -80 32 0 13 -4 27 -10 30 -6 4 -10 -11 -10 -38 0 -36 -4 -46 -20 -50 -28
-7 -15 -35 19 -43 14 -4 34 -14 44 -22 13 -12 20 -13 25 -5 4 6 30 13 57 16
28 2 59 8 70 14 22 12 25 13 59 13 17 0 25 7 28 25 7 32 -19 68 -43 62 -14 -4
-19 2 -21 27 -2 22 -9 32 -23 34 -12 2 -24 0 -28 -4z"/>
<path d="M3812 6108 c2 -32 6 -58 10 -58 12 0 9 83 -2 100 -8 11 -10 -1 -8
-42z"/>
<path d="M3879 6148 c0 -1 -3 -20 -5 -42 -3 -21 -6 -43 -7 -49 -1 -7 8 -13 19
-15 20 -3 22 1 20 49 0 32 -6 54 -13 57 -7 2 -13 2 -14 0z"/>
<path d="M3743 6095 c1 -20 7 -35 15 -35 19 0 25 25 12 49 -17 32 -30 25 -27
-14z"/>
<path d="M3931 6104 c-9 -20 -9 -30 0 -40 17 -21 49 -18 49 5 0 11 5 23 10 26
21 13 10 35 -18 35 -21 0 -32 -7 -41 -26z"/>
<path d="M3790 6001 c0 -5 11 -16 25 -25 14 -9 23 -21 20 -26 -4 -6 3 -10 15
-10 11 0 23 -7 26 -15 11 -27 25 -16 20 15 -2 16 1 33 6 36 7 5 8 2 3 -6 -5
-9 -4 -11 3 -6 17 10 15 36 -3 43 -9 3 -22 -2 -29 -12 -12 -17 -15 -17 -37 -2
-26 18 -49 22 -49 8z"/>
<path d="M3811 5954 c0 -11 3 -14 6 -6 3 7 2 16 -1 19 -3 4 -6 -2 -5 -13z"/>
<path d="M3990 5940 c-9 -6 -10 -10 -3 -10 6 0 15 5 18 10 8 12 4 12 -15 0z"/>
<path d="M3820 5920 c0 -6 7 -13 15 -17 24 -9 27 1 5 15 -13 8 -20 8 -20 2z"/>
<path d="M3777 5871 c-5 -19 2 -212 8 -219 9 -10 31 13 33 35 3 41 10 39 22
-6 13 -49 24 -52 39 -11 12 36 24 40 15 5 -5 -22 -3 -25 19 -25 l25 0 1 115
c1 63 0 115 -3 115 -2 0 -19 -31 -37 -70 -36 -73 -47 -83 -56 -50 -3 11 -10
20 -15 20 -5 0 -8 6 -7 13 1 6 -7 31 -18 55 -17 36 -21 40 -26 23z"/>
<path d="M3455 5840 c-4 -11 -2 -35 4 -53 6 -19 10 -57 8 -85 -3 -36 0 -52 9
-56 29 -11 39 4 36 52 -3 53 -6 54 61 -32 33 -43 49 -38 47 13 -1 20 -2 42 -1
49 2 19 21 14 21 -6 0 -22 35 -62 55 -62 29 0 44 13 55 46 10 28 9 40 -7 72
-24 49 -64 56 -89 15 -10 -15 -20 -30 -22 -33 -7 -10 -22 27 -22 58 0 52 -24
33 -30 -23 l-5 -49 -49 57 c-27 31 -52 57 -57 57 -4 0 -11 -9 -14 -20z m262
-99 c3 -22 -25 -37 -40 -22 -7 7 -5 17 8 31 20 22 27 20 32 -9z"/>
<path d="M4030 5849 c0 -13 -24 -70 -51 -121 -23 -44 -25 -84 -5 -91 16 -7 48
40 60 88 l7 29 28 -54 c16 -30 34 -55 42 -55 21 0 15 56 -12 112 -13 26 -22
56 -21 65 2 9 -6 22 -17 27 -25 14 -31 14 -31 0z"/>
<path d="M4154 5733 l1 -108 44 3 c64 5 88 17 111 54 25 41 25 41 -4 75 -23
27 -119 83 -142 83 -8 0 -11 -35 -10 -107z m100 -6 c18 -13 18 -14 -11 -24
-39 -14 -56 -3 -48 30 7 28 15 27 59 -6z"/>
<path d="M4160 3430 c0 -6 7 -10 15 -10 8 0 15 2 15 4 0 2 -7 6 -15 10 -8 3
-15 1 -15 -4z"/>
<path d="M4171 3383 c-7 -16 -9 -25 -5 -21 4 5 17 -7 28 -25 l21 -32 3 32 c3
32 -12 73 -27 73 -4 0 -13 -12 -20 -27z"/>
<path d="M3345 3444 c9 -10 22 -13 33 -9 15 7 15 8 -3 15 -35 15 -48 12 -30
-6z"/>
<path d="M3300 3429 c0 -7 -9 -9 -21 -6 -16 4 -18 3 -9 -9 9 -10 17 -11 31 -3
11 5 17 14 14 20 -8 12 -15 12 -15 -2z"/>
<path d="M3053 3414 c-3 -8 3 -31 13 -50 18 -32 34 -45 34 -25 0 5 14 24 32
42 17 19 28 29 25 22 -4 -6 -3 -14 3 -18 5 -3 10 1 10 9 0 27 17 17 26 -15 5
-17 14 -30 19 -30 13 1 19 81 5 81 -5 0 -10 -4 -10 -8 0 -8 -20 -7 -85 1 -16
3 -33 -1 -37 -7 -6 -8 -8 -7 -8 2 0 17 -19 15 -27 -4z"/>
<path d="M2862 3401 c7 -11 16 -17 20 -15 5 3 2 12 -6 20 -21 20 -28 17 -14
-5z"/>
<path d="M3294 3389 c-3 -6 -1 -15 5 -20 6 -5 9 -6 6 -3 -3 4 0 13 6 21 8 9 8
13 1 13 -6 0 -14 -5 -18 -11z"/>
<path d="M2430 3290 c0 -5 5 -10 10 -10 6 0 10 5 10 10 0 6 -4 10 -10 10 -5 0
-10 -4 -10 -10z"/>
<path d="M4231 2741 c-7 -5 -10 -14 -7 -20 4 -6 9 -24 11 -40 2 -15 15 -45 29
-65 14 -21 23 -43 20 -50 -4 -10 3 -13 24 -10 27 3 30 1 27 -21 -1 -14 4 -30
11 -36 8 -6 14 -10 15 -8 6 48 5 90 -2 95 -5 3 -9 14 -9 26 0 36 -31 88 -53
88 -11 0 -18 3 -14 6 5 6 -23 44 -33 44 -3 0 -11 -4 -19 -9z"/>
<path d="M3459 2663 c-32 -7 -76 -191 -51 -207 9 -5 21 14 42 71 7 19 17 30
23 26 6 -4 8 0 5 9 -4 8 -2 21 2 28 5 7 3 21 -3 32 -9 15 -9 20 2 27 16 10 3
19 -20 14z"/>
<path d="M3497 2643 c-4 -3 -7 -11 -7 -17 0 -6 5 -5 12 2 6 6 9 14 7 17 -3 3
-9 2 -12 -2z"/>
<path d="M4372 2460 c0 -19 2 -27 5 -17 2 9 2 25 0 35 -3 9 -5 1 -5 -18z"/>
<path d="M2676 2406 c3 -7 11 -13 19 -13 22 0 18 14 -4 20 -13 3 -18 0 -15 -7z"/>
<path d="M3410 2396 c0 -8 4 -17 9 -20 5 -4 7 3 4 14 -6 23 -13 26 -13 6z"/>
<path d="M3015 2240 c-4 -6 -10 -8 -15 -5 -15 9 -50 -37 -50 -67 0 -15 -4 -28
-9 -28 -5 0 -7 -9 -4 -19 3 -10 -1 -30 -8 -42 -11 -22 -11 -23 4 -10 15 12 17
11 17 -3 0 -9 6 -16 13 -15 29 4 46 -2 49 -17 2 -13 10 -10 35 16 l32 33 -5
-44 -5 -44 37 43 c36 43 55 50 36 15 -6 -11 -7 -25 -2 -32 6 -10 10 -8 15 8 8
27 29 22 33 -7 2 -12 8 -22 13 -22 5 0 10 -10 10 -22 1 -17 2 -19 6 -5 5 20
24 22 42 5 11 -10 14 -10 18 0 8 20 23 14 24 -10 1 -18 2 -19 6 -5 2 9 9 15
14 12 5 -4 9 -1 9 4 0 21 19 11 23 -11 4 -20 4 -20 6 4 0 14 -3 28 -8 30 -5 2
-11 17 -13 33 -2 24 1 29 14 27 13 -2 16 4 13 25 -2 15 -4 32 -4 38 -1 11 -30
-28 -49 -65 l-12 -25 6 25 c3 14 8 34 10 45 3 13 0 11 -11 -7 -19 -34 -39 -37
-33 -4 4 17 1 23 -9 19 -9 -3 -11 0 -7 10 4 12 -1 15 -21 12 -22 -2 -26 1 -22
16 3 11 1 16 -5 13 -5 -3 -8 -14 -5 -23 2 -10 -6 -30 -19 -46 l-24 -30 5 27
c3 15 10 40 15 55 l10 28 -20 -25 c-21 -27 -27 -21 -10 10 12 23 -4 37 -24 21
-17 -14 -26 -4 -26 28 0 19 -3 22 -12 13 -17 -17 -28 -15 -28 4 0 10 -6 14
-15 10 -8 -3 -15 -1 -15 4 0 13 -17 13 -25 0z m28 -85 c-3 -9 -8 -14 -10 -11
-3 3 -2 9 2 15 9 16 15 13 8 -4z m189 -47 c-7 -7 -12 -8 -12 -2 0 14 12 26 19
19 2 -3 -1 -11 -7 -17z"/>
<path d="M4152 2147 c-18 -18 -32 -41 -32 -51 0 -9 -4 -14 -10 -11 -5 3 -10 1
-10 -5 0 -6 -4 -9 -9 -6 -5 3 -12 -1 -15 -10 -3 -8 -10 -13 -15 -9 -5 3 -13 0
-17 -6 -4 -8 -3 -9 4 -5 19 11 14 -14 -8 -41 -11 -14 -20 -31 -20 -37 0 -6 5
-4 10 4 7 11 10 6 10 -22 0 -20 6 -39 13 -41 7 -4 6 -6 -4 -6 -17 -1 -29 -21
-29 -47 0 -8 6 -11 15 -8 8 4 15 1 15 -6 0 -6 7 -18 15 -26 17 -18 19 -11 5
17 -8 15 -7 19 4 19 9 0 18 -12 21 -27 9 -40 20 -58 36 -58 10 0 14 14 14 52
0 31 6 57 14 65 11 11 12 9 7 -9 -5 -16 -2 -25 12 -32 17 -9 21 -7 26 12 3 12
3 32 0 44 -3 11 -1 24 5 27 7 5 11 -7 11 -36 1 -39 2 -41 14 -25 14 18 14 18
19 0 4 -16 5 -16 6 2 1 16 3 17 10 6 14 -23 39 3 33 34 -6 35 7 31 19 -5 12
-33 28 -40 30 -12 1 12 4 9 10 -8 8 -23 8 -22 6 7 -3 26 -1 30 10 22 10 -9 12
0 10 47 -1 36 -7 63 -16 70 -8 6 -12 21 -9 37 3 17 -2 35 -18 54 -23 28 -23
28 -24 5 0 -21 -2 -22 -15 -8 -8 8 -15 25 -15 38 0 18 -2 20 -10 8 -5 -8 -10
-27 -10 -42 0 -16 -4 -28 -10 -28 -5 0 -10 18 -10 40 l0 40 -25 -16 c-14 -9
-26 -14 -26 -10 -1 3 -2 10 -3 15 -3 22 -14 19 -44 -12z m-39 -125 c-3 -7 -9
-10 -12 -5 -3 4 -10 11 -15 15 -4 4 1 6 12 5 12 -1 18 -6 15 -15z m7 -63 c0
-5 3 -8 8 -6 4 3 5 -14 4 -37 -3 -36 -7 -42 -28 -44 -20 -1 -23 2 -20 21 3 12
5 26 5 30 1 5 6 5 12 1 9 -5 10 1 5 20 -4 15 -2 26 4 26 5 0 10 -5 10 -11z
m76 -87 c-9 -8 -13 0 -19 38 l-6 35 15 -34 c8 -18 13 -36 10 -39z m148 53 c3
-8 1 -15 -4 -15 -6 0 -10 7 -10 15 0 8 2 15 4 15 2 0 6 -7 10 -15z m-284 -53
c0 -5 -7 -9 -15 -9 -8 0 -12 4 -9 9 3 4 9 8 15 8 5 0 9 -4 9 -8z"/>
<path d="M3602 2143 c-2 -34 -15 -49 -33 -37 -7 4 -7 10 -1 16 11 11 5 38 -7
38 -4 0 -14 -12 -21 -27 -7 -16 -15 -23 -17 -16 -2 7 -11 9 -19 6 -9 -3 -14 1
-14 12 0 15 -1 15 -16 1 -8 -9 -22 -16 -30 -16 -8 0 -14 -4 -14 -10 0 -15 -30
-12 -31 3 0 6 -5 1 -10 -13 -6 -14 -12 -64 -14 -112 -4 -87 -4 -87 19 -78 13
5 29 4 37 -1 24 -15 32 -10 27 16 -3 14 -1 25 3 25 5 0 9 -15 10 -32 0 -18 3
-27 6 -20 8 20 23 3 24 -26 0 -15 3 -21 6 -14 3 8 10 5 23 -10 l19 -23 21 23
c11 12 25 22 31 22 6 0 8 4 5 9 -3 5 1 11 9 14 9 4 12 1 8 -9 -7 -18 45 -64
64 -57 9 4 13 14 10 25 -4 15 -2 18 11 13 44 -18 56 -19 49 -1 -4 10 -7 25 -7
34 0 14 -2 13 -13 -2 -11 -15 -15 -16 -25 -3 -15 18 8 67 44 96 14 11 23 25
20 30 -9 14 -66 -20 -66 -38 0 -11 -3 -12 -10 -5 -12 12 1 57 19 69 16 9 13
25 -4 25 -8 0 -15 -5 -15 -11 0 -6 -7 -17 -15 -25 -13 -14 -15 -13 -15 8 0 13
6 30 12 36 10 10 10 15 -2 22 -8 6 -21 8 -29 5 -10 -4 -12 2 -7 22 5 21 4 24
-4 13 -5 -8 -10 -35 -10 -59 0 -62 -14 -41 -21 32 -3 34 -7 48 -7 30z m-132
-45 c0 -18 -2 -20 -9 -8 -6 8 -7 18 -5 22 9 14 14 9 14 -14z m105 -58 c-4 -12
-9 -19 -12 -17 -3 3 -2 15 2 27 4 12 9 19 12 17 3 -3 2 -15 -2 -27z m35 -25
c0 -19 -4 -35 -10 -35 -11 0 -13 30 -4 54 10 25 14 19 14 -19z m-213 -17 c-3
-8 -6 -5 -6 6 -1 11 2 17 5 13 3 -3 4 -12 1 -19z m100 -25 c-3 -10 -5 -4 -5
12 0 17 2 24 5 18 2 -7 2 -21 0 -30z m173 33 c0 -3 -4 -8 -10 -11 -5 -3 -10
-1 -10 4 0 6 5 11 10 11 6 0 10 -2 10 -4z m-153 -73 c-3 -10 -5 -2 -5 17 0 19
2 27 5 18 2 -10 2 -26 0 -35z m67 5 c10 -39 7 -44 -9 -14 -17 33 -18 36 -6 36
5 0 11 -10 15 -22z m93 -10 c-3 -8 -6 -5 -6 6 -1 11 2 17 5 13 3 -3 4 -12 1
-19z m-25 -14 c-4 -23 -6 -24 -15 -9 -8 14 2 32 19 35 1 0 -1 -12 -4 -26z m38
-24 c0 -5 -5 -10 -11 -10 -5 0 -7 5 -4 10 3 6 8 10 11 10 2 0 4 -4 4 -10z"/>
<path d="M4390 2121 c1 -3 7 -17 15 -31 17 -29 18 -40 6 -40 -5 0 -14 14 -20
30 -12 37 -20 39 -13 4 3 -15 14 -36 25 -47 14 -14 16 -21 7 -27 -8 -5 -7 -12
7 -25 17 -18 17 -18 -5 -13 -13 4 -22 2 -20 -4 2 -5 7 -8 11 -6 4 2 17 -13 29
-32 12 -21 23 -30 25 -22 3 7 -1 20 -8 30 -7 9 -10 14 -5 10 13 -11 37 18 30
36 -3 9 -3 28 0 42 6 21 9 24 21 14 20 -16 18 -2 -3 35 -23 40 -46 45 -39 8
l6 -28 -12 28 c-7 17 -16 26 -25 22 -9 -3 -12 0 -9 8 3 8 -1 14 -9 14 -8 0
-14 -3 -14 -6z"/>
<path d="M3040 2009 c-7 -11 -10 -23 -7 -25 2 -2 9 7 15 21 14 30 7 33 -8 4z"/>
<path d="M4480 2016 c0 -9 5 -16 10 -16 6 0 10 4 10 9 0 6 -4 13 -10 16 -5 3
-10 -1 -10 -9z"/>
<path d="M2975 1999 c-4 -6 -5 -12 -2 -15 2 -3 7 2 10 11 7 17 1 20 -8 4z"/>
<path d="M3951 2005 c-1 -15 33 -95 40 -95 19 0 15 33 -5 53 -13 13 -26 30
-29 38 -3 8 -6 10 -6 4z"/>
<path d="M3416 1897 c3 -10 9 -15 12 -12 3 3 0 11 -7 18 -10 9 -11 8 -5 -6z"/>
<path d="M4296 1840 l-18 -35 22 21 c12 12 20 28 18 35 -3 9 -12 0 -22 -21z"/>
<path d="M3816 1852 c-11 -18 103 -29 167 -16 15 3 27 10 27 15 0 5 -10 7 -22
4 -38 -9 -122 -10 -145 -2 -12 4 -24 4 -27 -1z"/>
<path d="M3710 1640 c0 -5 5 -10 11 -10 5 0 7 5 4 10 -3 6 -8 10 -11 10 -2 0
-4 -4 -4 -10z"/>
<path d="M3615 1600 c-4 -12 -5 -24 -2 -27 3 -2 8 5 12 17 4 12 5 24 2 27 -3
2 -8 -5 -12 -17z"/>
<path d="M3707 1603 c-5 -13 -12 -23 -16 -23 -5 0 -8 -12 -8 -27 0 -25 0 -26
13 -8 13 18 14 18 14 -2 0 -12 -4 -25 -10 -28 -5 -3 -10 -15 -10 -25 0 -10 -5
-20 -11 -22 -6 -2 -10 -13 -7 -23 3 -16 8 -12 28 23 23 40 40 54 40 31 0 -21
19 2 25 31 7 30 21 47 32 36 3 -3 0 -12 -7 -21 -16 -19 -26 -125 -11 -125 6 0
11 -8 12 -17 0 -11 5 -7 11 10 7 19 7 41 0 68 -8 32 -8 39 3 35 14 -5 13 12
-4 74 -5 19 -9 27 -10 17 -1 -10 -5 -16 -10 -13 -4 3 -16 -3 -26 -14 -25 -28
-33 -25 -37 13 -3 29 -4 30 -11 10z"/>
<path d="M3646 1584 c-9 -22 3 -32 14 -14 12 19 12 30 1 30 -5 0 -12 -7 -15
-16z"/>
<path d="M3821 1574 c0 -11 3 -14 6 -6 3 7 2 16 -1 19 -3 4 -6 -2 -5 -13z"/>
<path d="M3920 1571 c0 -5 5 -13 10 -16 6 -3 10 -2 10 4 0 5 -4 13 -10 16 -5
3 -10 2 -10 -4z"/>
<path d="M4108 1573 c6 -2 12 -13 12 -23 0 -10 5 -22 10 -25 6 -3 10 5 10 18
0 22 -18 39 -38 36 -4 0 -1 -3 6 -6z"/>
<path d="M3645 1529 c-4 -6 -5 -12 -2 -15 2 -3 7 2 10 11 7 17 1 20 -8 4z"/>
<path d="M4061 1524 c0 -11 3 -14 6 -6 3 7 2 16 -1 19 -3 4 -6 -2 -5 -13z"/>
<path d="M3744 1472 c-6 -4 -13 -17 -16 -29 -5 -19 -4 -20 13 -10 10 6 19 20
19 29 0 20 -1 21 -16 10z"/>
<path d="M3833 1402 c1 -30 6 -47 11 -42 12 12 10 70 -3 83 -6 6 -9 -7 -8 -41z"/>
<path d="M3705 1380 c-3 -6 1 -7 9 -4 18 7 21 14 7 14 -6 0 -13 -4 -16 -10z"/>
<path d="M3988 1320 c-11 -38 -10 -56 3 -43 6 6 9 23 7 39 l-3 29 -7 -25z"/>
<path d="M3702 1300 c0 -14 2 -19 5 -12 2 6 2 18 0 25 -3 6 -5 1 -5 -13z"/>
<path d="M3625 1250 c-3 -5 -1 -10 4 -10 6 0 11 5 11 10 0 6 -2 10 -4 10 -3 0
-8 -4 -11 -10z"/>
<path d="M4040 1247 c0 -8 7 -20 15 -27 11 -9 15 -10 15 -1 0 7 -7 19 -15 27
-13 13 -15 13 -15 1z"/>
<path d="M3768 1167 c-3 -19 -2 -25 4 -19 6 6 8 18 6 28 -3 14 -5 12 -10 -9z"/>
<path d="M2620 1776 c0 -14 5 -26 11 -26 5 0 9 -10 7 -22 -2 -11 3 -23 10 -25
6 -3 12 0 12 6 0 6 5 11 10 11 6 0 9 -5 8 -12 -2 -6 5 -14 15 -16 26 -6 20 12
-13 36 -16 13 -30 29 -30 36 0 7 -7 19 -15 26 -13 11 -15 8 -15 -14z"/>
<path d="M2722 1678 c6 -18 28 -21 28 -4 0 9 -7 16 -16 16 -9 0 -14 -5 -12
-12z"/>
<path d="M2672 1649 c2 -7 10 -15 17 -17 8 -3 12 1 9 9 -2 7 -10 15 -17 17 -8
3 -12 -1 -9 -9z"/>
<path d="M2764 1649 c-8 -14 18 -31 30 -19 9 9 0 30 -14 30 -5 0 -12 -5 -16
-11z"/>
<path d="M2627 1644 c-14 -15 -6 -34 14 -34 14 0 19 5 17 17 -3 18 -20 27 -31
17z"/>
<path d="M2742 1620 c0 -14 2 -19 5 -12 2 6 2 18 0 25 -3 6 -5 1 -5 -13z"/>
<path d="M2675 1610 c-3 -5 -1 -10 4 -10 6 0 11 5 11 10 0 6 -2 10 -4 10 -3 0
-8 -4 -11 -10z"/>
<path d="M2770 1591 c0 -11 4 -21 9 -21 18 0 21 18 6 30 -13 10 -15 9 -15 -9z"/>
<path d="M2715 1571 c-7 -12 12 -24 25 -16 11 7 4 25 -10 25 -5 0 -11 -4 -15
-9z"/>
<path d="M2667 1546 c-3 -8 -3 -17 0 -20 7 -7 33 13 33 25 0 15 -27 10 -33 -5z"/>
<path d="M2767 1544 c-8 -8 1 -24 14 -24 5 0 9 7 9 15 0 15 -12 20 -23 9z"/>
<path d="M2722 1518 c2 -6 10 -14 16 -16 7 -2 10 2 6 12 -7 18 -28 22 -22 4z"/>
<path d="M2765 1490 c-7 -12 2 -30 16 -30 5 0 9 9 9 20 0 21 -15 27 -25 10z"/>
<path d="M2600 1454 c0 -10 7 -14 22 -12 32 5 35 28 4 28 -17 0 -26 -5 -26
-16z"/>
<path d="M2721 1461 c-10 -6 -10 -10 -1 -16 13 -8 24 -1 19 14 -3 6 -10 7 -18
2z"/>
<path d="M2660 1435 c0 -8 6 -15 14 -15 8 0 16 7 20 15 4 10 -1 15 -14 15 -11
0 -20 -7 -20 -15z"/>
<path d="M2766 1443 c-12 -12 -6 -33 9 -33 8 0 15 6 15 14 0 17 -14 28 -24 19z"/>
<path d="M2604 1419 c-8 -14 11 -33 25 -25 16 10 13 36 -3 36 -8 0 -18 -5 -22
-11z"/>
<path d="M2720 1400 c6 -11 13 -20 15 -20 3 0 5 9 5 20 0 11 -7 20 -15 20 -13
0 -14 -4 -5 -20z"/>
<path d="M2760 1376 c0 -9 7 -16 16 -16 17 0 14 22 -4 28 -7 2 -12 -3 -12 -12z"/>
<path d="M2604 1369 c-3 -6 -1 -16 5 -22 8 -8 11 -5 11 11 0 24 -5 28 -16 11z"/>
<path d="M2660 1370 c0 -5 4 -10 9 -10 6 0 13 5 16 10 3 6 -1 10 -9 10 -9 0
-16 -4 -16 -10z"/>
<path d="M2665 1340 c-3 -5 -1 -10 4 -10 6 0 11 5 11 10 0 6 -2 10 -4 10 -3 0
-8 -4 -11 -10z"/>
<path d="M2762 1319 c2 -6 8 -10 13 -10 5 0 11 4 13 10 2 6 -4 11 -13 11 -9 0
-15 -5 -13 -11z"/>
<path d="M2706 1301 c-3 -5 0 -14 8 -20 10 -9 15 -8 19 3 9 22 -15 37 -27 17z"/>
<path d="M2605 1290 c3 -5 11 -10 16 -10 6 0 7 5 4 10 -3 6 -11 10 -16 10 -6
0 -7 -4 -4 -10z"/>
<path d="M2654 1279 c-8 -14 11 -33 25 -25 11 7 4 36 -9 36 -5 0 -12 -5 -16
-11z"/>
<path d="M2755 1271 c-7 -12 12 -24 25 -16 11 7 4 25 -10 25 -5 0 -11 -4 -15
-9z"/>
<path d="M2601 1257 c-9 -11 -8 -17 4 -27 12 -10 16 -9 21 5 9 23 -10 40 -25
22z"/>
<path d="M2705 1250 c-7 -12 2 -30 16 -30 12 0 12 27 0 35 -5 3 -12 1 -16 -5z"/>
<path d="M2654 1226 c-4 -10 -2 -22 4 -28 8 -8 13 -7 18 6 4 10 2 22 -4 28 -8
8 -13 7 -18 -6z"/>
<path d="M2755 1220 c-7 -12 2 -30 16 -30 12 0 12 27 0 35 -5 3 -12 1 -16 -5z"/>
<path d="M2594 1199 c-10 -17 13 -36 27 -22 12 12 4 33 -11 33 -5 0 -12 -5
-16 -11z"/>
<path d="M2705 1190 c-8 -13 4 -32 16 -25 12 8 12 35 0 35 -6 0 -13 -4 -16
-10z"/>
<path d="M2543 1174 c-8 -21 13 -42 28 -27 13 13 5 43 -11 43 -6 0 -13 -7 -17
-16z"/>
<path d="M2647 1165 c-8 -18 11 -31 25 -17 11 11 3 32 -12 32 -4 0 -10 -7 -13
-15z"/>
<path d="M2755 1160 c-4 -6 -3 -16 3 -22 6 -6 12 -6 17 2 4 6 3 16 -3 22 -6 6
-12 6 -17 -2z"/>
<path d="M2590 1136 c0 -8 4 -17 8 -20 13 -8 35 11 28 23 -10 16 -36 14 -36
-3z"/>
<path d="M2706 1143 c-12 -12 -6 -33 9 -33 8 0 15 6 15 14 0 17 -14 28 -24 19z"/>
<path d="M2540 1110 c0 -11 7 -20 15 -20 8 0 15 9 15 20 0 11 -7 20 -15 20 -8
0 -15 -9 -15 -20z"/>
<path d="M2644 1109 c-8 -14 11 -33 25 -25 11 7 4 36 -9 36 -5 0 -12 -5 -16
-11z"/>
<path d="M2489 1103 c-8 -65 -6 -93 8 -93 9 0 13 8 12 23 -2 12 0 28 5 35 9
15 1 42 -14 42 -5 0 -10 -3 -11 -7z"/>
<path d="M2750 1095 c0 -9 5 -15 11 -13 6 2 11 8 11 13 0 5 -5 11 -11 13 -6 2
-11 -4 -11 -13z"/>
<path d="M2591 1086 c-12 -14 -5 -26 16 -26 15 0 18 26 4 34 -5 3 -14 0 -20
-8z"/>
<path d="M2535 1063 c-7 -19 9 -38 24 -29 16 10 14 33 -3 39 -8 3 -17 -1 -21
-10z"/>
<path d="M2700 1064 c0 -9 5 -14 12 -12 18 6 21 28 4 28 -9 0 -16 -7 -16 -16z"/>
<path d="M2640 1045 c0 -8 7 -15 15 -15 8 0 15 7 15 15 0 8 -7 15 -15 15 -8 0
-15 -7 -15 -15z"/>
<path d="M2755 1047 c-4 -10 -5 -21 -1 -24 10 -10 18 4 13 24 -4 17 -4 17 -12
0z"/>
<path d="M2584 1029 c-10 -17 13 -36 27 -22 12 12 4 33 -11 33 -5 0 -12 -5
-16 -11z"/>
<path d="M2697 1023 c-12 -11 -8 -23 8 -23 8 0 15 7 15 15 0 16 -12 20 -23 8z"/>
<path d="M2534 1005 c-9 -23 10 -40 25 -22 9 11 8 17 -4 27 -12 10 -16 9 -21
-5z"/>
<path d="M2642 989 c2 -6 8 -10 13 -10 5 0 11 4 13 10 2 6 -4 11 -13 11 -9 0
-15 -5 -13 -11z"/>
<path d="M2747 993 c-12 -11 -8 -23 8 -23 8 0 15 7 15 15 0 16 -12 20 -23 8z"/>
<path d="M2477 975 c-8 -18 11 -31 25 -17 11 11 3 32 -12 32 -4 0 -10 -7 -13
-15z"/>
<path d="M2582 963 c5 -25 28 -28 28 -4 0 12 -6 21 -16 21 -9 0 -14 -7 -12
-17z"/>
<path d="M2694 966 c-8 -22 3 -33 18 -18 9 9 9 15 0 24 -9 9 -13 7 -18 -6z"/>
<path d="M2536 953 c-12 -12 -6 -33 9 -33 8 0 15 6 15 14 0 17 -14 28 -24 19z"/>
<path d="M2635 940 c-7 -12 2 -30 16 -30 12 0 12 27 0 35 -5 3 -12 1 -16 -5z"/>
<path d="M2744 936 c-8 -22 3 -33 18 -18 9 9 9 15 0 24 -9 9 -13 7 -18 -6z"/>
<path d="M2472 913 c5 -25 28 -28 28 -4 0 12 -6 21 -16 21 -9 0 -14 -7 -12
-17z"/>
<path d="M2577 914 c-9 -10 2 -24 19 -24 8 0 14 7 14 15 0 15 -21 21 -33 9z"/>
<path d="M2685 910 c-8 -13 4 -32 16 -25 12 8 12 35 0 35 -6 0 -13 -4 -16 -10z"/>
<path d="M2527 893 c-13 -12 -7 -33 8 -33 8 0 15 9 15 20 0 20 -11 26 -23 13z"/>
<path d="M2630 870 c0 -13 5 -20 13 -17 6 2 12 10 12 17 0 7 -6 15 -12 18 -8
2 -13 -5 -13 -18z"/>
<path d="M2742 877 c-9 -11 -10 -17 -2 -22 15 -9 23 -1 18 21 -3 15 -4 16 -16
1z"/>
<path d="M2472 854 c4 -21 22 -23 26 -1 2 10 -3 17 -13 17 -10 0 -15 -6 -13
-16z"/>
<path d="M2575 849 c-10 -15 1 -23 20 -15 9 3 13 10 10 16 -8 13 -22 13 -30
-1z"/>
<path d="M2685 850 c-4 -6 -3 -16 3 -22 6 -6 12 -6 17 2 4 6 3 16 -3 22 -6 6
-12 6 -17 -2z"/>
<path d="M2522 824 c4 -21 22 -23 26 -1 2 10 -3 17 -13 17 -10 0 -15 -6 -13
-16z"/>
<path d="M2627 824 c-3 -3 -3 -12 0 -20 4 -11 9 -12 19 -3 8 6 11 15 8 20 -6
10 -18 12 -27 3z"/>
<path d="M2730 810 c0 -13 5 -20 13 -17 6 2 12 10 12 17 0 7 -6 15 -12 18 -8
2 -13 -5 -13 -18z"/>
<path d="M2467 804 c-9 -9 4 -35 14 -28 5 3 9 12 9 20 0 14 -12 19 -23 8z"/>
<path d="M2570 790 c0 -11 7 -20 15 -20 8 0 15 9 15 20 0 11 -7 20 -15 20 -8
0 -15 -9 -15 -20z"/>
<path d="M2674 789 c-3 -6 -1 -16 5 -22 9 -9 14 -8 21 3 9 15 4 30 -10 30 -5
0 -12 -5 -16 -11z"/>
<path d="M2515 770 c-11 -17 5 -32 21 -19 7 6 11 15 8 20 -7 12 -21 11 -29 -1z"/>
<path d="M2622 754 c4 -21 22 -23 26 -1 2 10 -3 17 -13 17 -10 0 -15 -6 -13
-16z"/>
<path d="M2724 759 c-10 -17 13 -36 27 -22 12 12 4 33 -11 33 -5 0 -12 -5 -16
-11z"/>
<path d="M2462 734 c4 -21 22 -23 26 -1 2 10 -3 17 -13 17 -10 0 -15 -6 -13
-16z"/>
<path d="M2564 739 c-10 -17 13 -36 27 -22 12 12 4 33 -11 33 -5 0 -12 -5 -16
-11z"/>
<path d="M2672 724 c4 -21 22 -23 26 -1 2 10 -3 17 -13 17 -10 0 -15 -6 -13
-16z"/>
<path d="M2510 699 c0 -24 23 -21 28 4 2 10 -3 17 -12 17 -10 0 -16 -9 -16
-21z"/>
<path d="M2617 705 c-8 -18 11 -31 25 -17 11 11 3 32 -12 32 -4 0 -10 -7 -13
-15z"/>
<path d="M2722 694 c4 -21 22 -23 26 -1 2 10 -3 17 -13 17 -10 0 -15 -6 -13
-16z"/>
<path d="M2457 685 c-4 -9 -1 -18 9 -22 22 -8 30 5 12 23 -14 14 -16 14 -21
-1z"/>
<path d="M2560 670 c0 -11 7 -20 15 -20 8 0 15 9 15 20 0 11 -7 20 -15 20 -8
0 -15 -9 -15 -20z"/>
<path d="M2671 676 c-12 -14 -5 -26 16 -26 15 0 18 26 4 34 -5 3 -14 0 -20 -8z"/>
<path d="M2503 654 c-7 -19 11 -39 26 -30 16 10 13 33 -4 40 -9 3 -18 -1 -22
-10z"/>
<path d="M2614 645 c-7 -17 4 -37 17 -30 12 8 12 45 -1 45 -6 0 -13 -7 -16
-15z"/>
<path d="M2720 645 c-9 -11 -10 -19 -3 -26 13 -13 35 12 24 29 -6 10 -11 9
-21 -3z"/>
<path d="M2456 633 c-12 -12 -6 -33 9 -33 8 0 15 6 15 14 0 17 -14 28 -24 19z"/>
<path d="M2563 633 c-18 -7 -16 -43 2 -43 18 0 31 28 19 39 -5 5 -15 6 -21 4z"/>
<path d="M2667 623 c-4 -3 -7 -12 -7 -20 0 -17 26 -17 33 1 8 21 -11 35 -26
19z"/>
<path d="M2500 585 c0 -27 9 -32 27 -14 14 14 6 39 -13 39 -8 0 -14 -10 -14
-25z"/>
<path d="M2604 589 c-8 -14 11 -33 25 -25 16 10 13 36 -3 36 -8 0 -18 -5 -22
-11z"/>
<path d="M2712 578 c2 -13 8 -23 13 -23 6 0 11 10 13 23 2 15 -2 22 -13 22
-11 0 -15 -7 -13 -22z"/>
<path d="M2452 568 c-7 -7 -12 -16 -12 -20 0 -12 28 -10 36 3 10 17 -10 31
-24 17z"/>
<path d="M2556 573 c-12 -12 -6 -43 9 -43 8 0 15 9 15 19 0 21 -13 34 -24 24z"/>
<path d="M2653 554 c-8 -20 8 -36 26 -25 15 10 8 41 -9 41 -6 0 -13 -7 -17
-16z"/>
<path d="M2494 535 c-3 -8 -3 -19 0 -24 10 -16 36 -1 36 20 0 22 -28 26 -36 4z"/>
<path d="M2595 530 c-8 -14 3 -30 21 -30 8 0 14 9 14 20 0 21 -24 28 -35 10z"/>
<path d="M2704 525 c-3 -8 -3 -19 1 -25 4 -6 1 -17 -5 -25 -13 -16 -5 -35 15
-35 20 0 28 19 15 35 -7 9 -8 15 0 20 5 3 10 15 10 26 0 22 -28 26 -36 4z"/>
<path d="M2444 505 c-7 -17 4 -37 17 -30 12 8 12 45 -1 45 -6 0 -13 -7 -16
-15z"/>
<path d="M2547 514 c-15 -15 -7 -45 11 -42 9 2 17 12 17 22 0 20 -16 31 -28
20z"/>
<path d="M2645 500 c-8 -14 3 -30 21 -30 8 0 14 9 14 20 0 21 -24 28 -35 10z"/>
<path d="M2486 473 c-8 -19 8 -38 23 -29 16 10 13 46 -3 46 -8 0 -17 -8 -20
-17z"/>
<path d="M2594 476 c-3 -9 -4 -23 -1 -31 4 -8 2 -17 -3 -20 -18 -11 -11 -45 9
-45 22 0 27 12 26 64 0 40 -20 60 -31 32z"/>
<path d="M2433 444 c-7 -18 11 -39 26 -30 17 11 13 46 -4 46 -9 0 -18 -7 -22
-16z"/>
<path d="M2477 409 c-3 -13 0 -22 10 -26 15 -6 33 12 33 35 0 21 -37 14 -43
-9z"/>
<path d="M4885 1440 c-7 -12 2 -30 16 -30 12 0 12 27 0 35 -5 3 -12 1 -16 -5z"/>
<path d="M4830 1413 c0 -5 4 -14 9 -21 6 -10 10 -9 14 7 3 14 0 21 -9 21 -8 0
-14 -3 -14 -7z"/>
<path d="M4780 1336 c0 -22 17 -28 24 -10 9 22 8 24 -9 24 -8 0 -15 -6 -15
-14z"/>
<path d="M4735 1328 c-9 -22 4 -43 17 -30 7 7 7 16 0 29 -10 17 -11 17 -17 1z"/>
<path d="M4820 1301 c0 -11 4 -21 9 -21 18 0 21 18 6 30 -13 10 -15 9 -15 -9z"/>
<path d="M4687 1303 c-12 -11 -8 -23 8 -23 8 0 15 7 15 15 0 16 -12 20 -23 8z"/>
<path d="M4910 1290 c0 -19 11 -26 23 -14 8 8 -3 34 -14 34 -5 0 -9 -9 -9 -20z"/>
<path d="M4776 1285 c4 -8 10 -15 15 -15 5 0 9 7 9 15 0 8 -7 15 -15 15 -9 0
-12 -6 -9 -15z"/>
<path d="M4720 1265 c0 -8 2 -15 4 -15 2 0 6 7 10 15 3 8 1 15 -4 15 -6 0 -10
-7 -10 -15z"/>
<path d="M4866 1265 c4 -8 10 -15 15 -15 5 0 9 7 9 15 0 8 -7 15 -15 15 -9 0
-12 -6 -9 -15z"/>
<path d="M4674 1256 c-4 -10 -2 -22 4 -28 8 -8 13 -7 18 6 4 10 2 22 -4 28 -8
8 -13 7 -18 -6z"/>
<path d="M4816 1261 c-5 -7 -3 -18 3 -24 14 -14 20 -6 11 17 -5 15 -9 16 -14
7z"/>
<path d="M4764 1236 c-8 -22 3 -33 18 -18 9 9 9 15 0 24 -9 9 -13 7 -18 -6z"/>
<path d="M4712 1210 c0 -14 2 -19 5 -12 2 6 2 18 0 25 -3 6 -5 1 -5 -13z"/>
<path d="M4667 1203 c-13 -12 -7 -33 8 -33 8 0 15 9 15 20 0 20 -11 26 -23 13z"/>
<path d="M4800 1195 c0 -8 7 -15 15 -15 8 0 15 7 15 15 0 8 -7 15 -15 15 -8 0
-15 -7 -15 -15z"/>
<path d="M4756 1191 c-3 -5 1 -14 9 -21 12 -10 15 -10 15 3 0 19 -16 31 -24
18z"/>
<path d="M4705 1170 c-7 -12 2 -30 16 -30 12 0 12 27 0 35 -5 3 -12 1 -16 -5z"/>
<path d="M4655 1150 c-7 -12 2 -30 16 -30 5 0 9 9 9 20 0 21 -15 27 -25 10z"/>
<path d="M4892 1124 c4 -21 22 -23 26 -1 2 10 -3 17 -13 17 -10 0 -15 -6 -13
-16z"/>
<path d="M4742 1121 c4 -13 18 -16 19 -4 0 4 -5 9 -11 12 -7 2 -11 -2 -8 -8z"/>
<path d="M4840 1105 c0 -8 7 -15 15 -15 8 0 15 7 15 15 0 8 -7 15 -15 15 -8 0
-15 -7 -15 -15z"/>
<path d="M4796 1103 c-11 -11 -6 -23 9 -23 8 0 15 4 15 9 0 13 -16 22 -24 14z"/>
<path d="M4645 1090 c-11 -17 5 -32 21 -19 7 6 11 15 8 20 -7 12 -21 11 -29
-1z"/>
<path d="M4840 1061 c0 -5 5 -13 10 -16 6 -3 10 -2 10 4 0 5 -4 13 -10 16 -5
3 -10 2 -10 -4z"/>
<path d="M4680 1052 c0 -12 19 -26 26 -19 2 2 -2 10 -11 17 -9 8 -15 8 -15 2z"/>
<path d="M4637 1035 c-8 -18 11 -31 25 -17 11 11 3 32 -12 32 -4 0 -10 -7 -13
-15z"/>
<path d="M4780 1030 c0 -5 7 -10 15 -10 8 0 15 5 15 10 0 6 -7 10 -15 10 -8 0
-15 -4 -15 -10z"/>
<path d="M4730 1014 c0 -9 5 -14 12 -12 18 6 21 28 4 28 -9 0 -16 -7 -16 -16z"/>
<path d="M4880 1015 c0 -8 5 -15 10 -15 6 0 10 7 10 15 0 8 -4 15 -10 15 -5 0
-10 -7 -10 -15z"/>
<path d="M4680 1005 c-7 -9 -10 -18 -7 -21 3 -3 10 4 17 15 13 25 8 27 -10 6z"/>
<path d="M4626 984 c-8 -21 -1 -28 19 -20 9 3 15 11 13 18 -7 19 -25 20 -32 2z"/>
<path d="M4776 992 c-3 -6 -1 -14 5 -17 15 -10 25 3 12 16 -7 7 -13 7 -17 1z"/>
<path d="M4670 945 c0 -14 4 -25 9 -25 4 0 6 11 3 25 -2 14 -6 25 -8 25 -2 0
-4 -11 -4 -25z"/>
<path d="M4870 960 c0 -5 7 -10 15 -10 8 0 15 5 15 10 0 6 -7 10 -15 10 -8 0
-15 -4 -15 -10z"/>
<path d="M4826 941 c-4 -7 -5 -15 -2 -18 9 -9 19 4 14 18 -4 11 -6 11 -12 0z"/>
<path d="M4615 930 c-8 -14 3 -30 21 -30 8 0 14 9 14 20 0 21 -24 28 -35 10z"/>
<path d="M4716 923 c-12 -12 -6 -33 9 -33 8 0 15 6 15 14 0 17 -14 28 -24 19z"/>
<path d="M4762 919 c2 -6 8 -10 13 -10 5 0 11 4 13 10 2 6 -4 11 -13 11 -9 0
-15 -5 -13 -11z"/>
<path d="M4865 910 c-8 -13 -1 -24 14 -19 6 3 7 10 2 18 -6 10 -10 10 -16 1z"/>
<path d="M4656 895 c-3 -8 -1 -15 4 -15 6 0 10 7 10 15 0 8 -2 15 -4 15 -2 0
-6 -7 -10 -15z"/>
<path d="M4815 900 c-4 -6 -3 -16 3 -22 6 -6 12 -6 17 2 4 6 3 16 -3 22 -6 6
-12 6 -17 -2z"/>
<path d="M4605 880 c-10 -16 16 -43 28 -31 11 11 2 41 -12 41 -5 0 -13 -5 -16
-10z"/>
<path d="M4860 845 c0 -8 5 -15 10 -15 6 0 10 7 10 15 0 8 -4 15 -10 15 -5 0
-10 -7 -10 -15z"/>
<path d="M4650 831 c0 -11 4 -21 9 -21 18 0 21 18 6 30 -13 10 -15 9 -15 -9z"/>
<path d="M4705 840 c4 -6 11 -8 16 -5 14 9 11 15 -7 15 -8 0 -12 -5 -9 -10z"/>
<path d="M4850 795 c0 -9 5 -15 11 -13 6 2 11 8 11 13 0 5 -5 11 -11 13 -6 2
-11 -4 -11 -13z"/>
<path d="M4637 785 c-9 -22 8 -26 21 -4 10 15 10 19 -2 19 -8 0 -16 -7 -19
-15z"/>
<path d="M4790 786 c0 -2 7 -6 15 -10 8 -3 15 -1 15 4 0 6 -7 10 -15 10 -8 0
-15 -2 -15 -4z"/>
<path d="M4585 770 c-8 -14 3 -30 21 -30 8 0 14 9 14 20 0 21 -24 28 -35 10z"/>
<path d="M4630 732 c0 -14 6 -22 16 -22 14 0 15 3 3 18 -7 9 -15 19 -16 21 -2
2 -3 -5 -3 -17z"/>
<path d="M4842 738 c6 -18 28 -21 28 -4 0 9 -7 16 -16 16 -9 0 -14 -5 -12 -12z"/>
<path d="M4685 730 c3 -5 10 -10 16 -10 5 0 9 5 9 10 0 6 -7 10 -16 10 -8 0
-12 -4 -9 -10z"/>
<path d="M4730 706 c0 -24 18 -28 30 -6 9 17 8 20 -10 20 -11 0 -20 -6 -20
-14z"/>
<path d="M4675 700 c-3 -6 1 -13 10 -16 19 -8 30 0 20 15 -8 14 -22 14 -30 1z"/>
<path d="M4837 693 c-12 -11 -8 -23 8 -23 8 0 15 7 15 15 0 16 -12 20 -23 8z"/>
<path d="M4622 670 c0 -14 2 -19 5 -12 2 6 2 18 0 25 -3 6 -5 1 -5 -13z"/>
<path d="M4782 664 c4 -21 22 -23 26 -1 2 10 -3 17 -13 17 -10 0 -15 -6 -13
-16z"/>
<path d="M4824 639 c-10 -17 13 -36 27 -22 12 12 4 33 -11 33 -5 0 -12 -5 -16
-11z"/>
<path d="M4612 618 c2 -13 9 -23 17 -23 23 0 24 23 1 35 -19 10 -21 9 -18 -12z"/>
<path d="M4663 628 c2 -7 10 -13 17 -13 7 0 15 6 18 13 2 7 -5 12 -18 12 -13
0 -20 -5 -17 -12z"/>
<path d="M4723 613 c-7 -3 -13 -11 -13 -19 0 -16 9 -18 27 -6 15 9 3 31 -14
25z"/>
<path d="M4655 591 c-8 -15 3 -31 21 -31 9 0 14 7 12 17 -4 20 -24 28 -33 14z"/>
<path d="M4817 575 c-7 -16 8 -29 23 -20 15 9 12 35 -4 35 -8 0 -16 -7 -19
-15z"/>
<path d="M4771 556 c-10 -12 -6 -26 10 -26 11 0 19 29 10 35 -5 2 -14 -1 -20
-9z"/>
<path d="M4707 554 c-15 -15 -6 -32 13 -27 12 3 19 10 17 16 -4 14 -21 19 -30
11z"/>
<path d="M4812 527 c-13 -15 1 -42 17 -33 13 9 15 33 2 40 -5 3 -13 0 -19 -7z"/>
<path d="M4752 511 c-10 -6 -10 -10 3 -21 18 -15 42 0 31 19 -8 13 -16 14 -34
2z"/>
<path d="M4730 451 c0 -12 23 -31 37 -31 7 0 13 8 13 18 0 11 -8 17 -25 18
-14 1 -25 -1 -25 -5z"/>
</g>
</svg>
